#!OML:ASF F:\VICON\USERDATA\Patient Classification 1\PLAYGROUND\JustinFriday\JustinFriday.ASF
:FULLY-SPECIFIED
:DEGREES
1478
root 12.5533 26.6137 50.3671 -360.065 -189.323 7.33046
lowerback 20.0669 3.00616 0.24439
upperback 13.7311 7.17038 3.45847
thorax 3.33451 4.75024 2.41148
lowerneck -14.8106 -6.79616 -3.46726
upperneck 16.5438 -8.72366 -0.744277
head 7.65099 -4.52662 -0.64593
rclavicle -3.45885e-014 0
rhumerus 107.321 -12.411 -72.2363
rradius 36.9191
rwrist 13.6815
rhand -28.4268 -20.5517
rfingers 7.12502
rthumb -1.79813 -50.5239
lclavicle -3.45885e-014 0
lhumerus 112.336 2.95302 73.9704
lradius 34.3818
lwrist -26.2529
lhand -8.26568 -0.642402
lfingers 7.12502
lthumb 17.6532 28.5762
rfemur -24.234 2.30067 29.0309
rtibia 25.4062
rfoot -23.7522 -2.69277
rtoes 5.68845
lfemur -24.5022 7.93426 -15.0771
ltibia 32.4195
lfoot -26.4152 -0.0122353
ltoes 8.22673
1479
root 12.5465 26.6069 50.4024 -360.193 -189.233 7.43972
lowerback 20.1187 2.96736 0.379951
upperback 13.7653 7.16412 3.52427
thorax 3.35217 4.76255 2.40618
lowerneck -15.253 -6.88414 -3.4071
upperneck 16.3045 -8.80482 -0.729332
head 7.64738 -4.54687 -0.669327
rclavicle 2.42517e-014 -3.4191e-014
rhumerus 107.652 -12.8427 -71.5583
rradius 35.8543
rwrist 13.7665
rhand -27.9039 -20.9644
rfingers 7.12502
rthumb -1.29308 -50.9402
lclavicle 2.42517e-014 -3.4191e-014
lhumerus 112.775 3.3546 73.4092
lradius 33.1858
lwrist -25.9782
lhand -8.54622 -0.534953
lfingers 7.12502
lthumb 17.3832 28.7077
rfemur -24.2856 2.08288 29.1707
rtibia 25.5226
rfoot -23.7627 -2.60757
rtoes 7.32363
lfemur -24.4177 7.84197 -14.9463
ltibia 32.2957
lfoot -26.1324 0.0217767
ltoes 9.3776
1480
root 12.5336 26.5943 50.4382 -360.252 -188.694 7.37948
lowerback 20.1327 2.76008 0.548351
upperback 13.7365 6.92506 3.53677
thorax 3.33585 4.65653 2.36471
lowerneck -15.6163 -6.90293 -3.33845
upperneck 15.9838 -8.79777 -0.694661
head 7.60244 -4.52392 -0.672469
rclavicle 4.49253e-014 4.53229e-014
rhumerus 107.952 -13.2855 -70.8725
rradius 34.7496
rwrist 14.1489
rhand -27.474 -21.3989
rfingers 7.12502
rthumb -0.877895 -51.3768
lclavicle 4.49253e-014 4.53229e-014
lhumerus 113.094 3.88348 72.7104
lradius 32.1197
lwrist -25.6145
lhand -8.80682 -0.36674
lfingers 7.12502
lthumb 17.1324 28.8979
rfemur -24.4588 1.57405 29.0577
rtibia 25.5948
rfoot -23.7463 -2.61941
rtoes 7.77785
lfemur -24.5917 7.3451 -15.0859
ltibia 32.2263
lfoot -25.9676 0.0459208
ltoes 9.33103
1481
root 12.5246 26.5821 50.4694 -360.363 -188.333 7.21074
lowerback 20.0659 2.60942 0.588677
upperback 13.7897 6.7527 3.4971
thorax 3.44335 4.58256 2.34354
lowerneck -15.6682 -6.95066 -3.41967
upperneck 15.326 -8.83548 -0.444225
head 7.41078 -4.51101 -0.567322
rclavicle -2.62396e-014 -2.22639e-014
rhumerus 108.244 -13.7718 -70.1786
rradius 33.6763
rwrist 14.6851
rhand -27.2214 -21.6206
rfingers 7.12502
rthumb -0.633934 -51.5994
lclavicle -2.62396e-014 -2.22639e-014
lhumerus 113.543 4.44239 72.0907
lradius 31.0259
lwrist -25.7159
lhand -8.67691 -0.371273
lfingers 7.12502
lthumb 17.2574 28.8825
rfemur -24.5177 1.27802 28.8198
rtibia 25.6027
rfoot -23.7343 -2.56404
rtoes 7.50795
lfemur -24.6842 6.86971 -15.3075
ltibia 32.22
lfoot -25.8695 0.247952
ltoes 9.09295
1482
root 12.5248 26.5722 50.4989 -360.456 -188.542 7.2031
lowerback 20.0712 2.68757 0.533587
upperback 13.8257 6.85432 3.49009
thorax 3.47364 4.63301 2.35218
lowerneck -15.7998 -6.9943 -3.4038
upperneck 14.6631 -8.86307 -0.347108
head 7.21989 -4.50384 -0.528756
rclavicle 2.82274e-014 -1.27222e-014
rhumerus 108.511 -14.2157 -69.492
rradius 32.6501
rwrist 15.1196
rhand -26.7721 -21.7732
rfingers 7.12502
rthumb -0.19995 -51.7528
lclavicle 2.82274e-014 -1.27222e-014
lhumerus 113.997 4.94173 71.4987
lradius 29.8872
lwrist -26.0019
lhand -8.63825 -0.392119
lfingers 7.12502
lthumb 17.2946 28.8584
rfemur -24.5008 1.45429 28.8294
rtibia 25.5879
rfoot -23.6681 -2.42373
rtoes 7.32343
lfemur -24.6818 6.99943 -15.2767
ltibia 32.2523
lfoot -25.8024 0.333462
ltoes 8.98462
1483
root 12.5296 26.562 50.5319 -360.36 -189.056 7.38351
lowerback 20.0498 2.92022 0.491285
upperback 13.7566 7.11899 3.54666
thorax 3.38625 4.74693 2.38281
lowerneck -16.0701 -6.99341 -3.3081
upperneck 14.1962 -8.82438 -0.447101
head 7.10313 -4.482 -0.568749
rclavicle 5.32743e-014 -4.45278e-014
rhumerus 108.762 -14.585 -68.8606
rradius 31.6118
rwrist 15.5456
rhand -26.3653 -21.9879
rfingers 7.12502
rthumb 0.192915 -51.9675
lclavicle 5.32743e-014 -4.45278e-014
lhumerus 114.283 5.49633 70.7428
lradius 28.7648
lwrist -26.0929
lhand -8.87358 -0.283972
lfingers 7.12502
lthumb 17.0681 28.9862
rfemur -24.6453 1.82953 29.1022
rtibia 25.5224
rfoot -23.4143 -2.28649
rtoes 7.53577
lfemur -24.8687 7.54757 -15.0439
ltibia 32.323
lfoot -25.7275 0.196791
ltoes 9.20943
1484
root 12.5224 26.5518 50.5582 -360.483 -188.601 7.58293
lowerback 20.1858 2.72942 0.816951
upperback 13.7506 6.95056 3.65237
thorax 3.33542 4.69178 2.33102
lowerneck -16.4161 -6.97222 -3.16081
upperneck 13.7488 -8.7573 -0.646421
head 6.99822 -4.45431 -0.648502
rclavicle 2.82274e-014 3.02153e-014
rhumerus 108.972 -15.0741 -68.0651
rradius 30.609
rwrist 15.9271
rhand -26.1204 -22.1962
rfingers 7.12502
rthumb 0.429476 -52.1755
lclavicle 2.82274e-014 3.02153e-014
lhumerus 114.543 6.18522 69.8998
lradius 27.7148
lwrist -26.0776
lhand -9.02174 -0.248003
lfingers 7.12502
lthumb 16.9255 29.0345
rfemur -24.5301 1.70602 29.251
rtibia 25.3982
rfoot -23.2571 -2.72866
rtoes 7.45256
lfemur -24.9631 7.46823 -14.8909
ltibia 32.4101
lfoot -25.6475 -0.255128
ltoes 9.5675
1485
root 12.5162 26.5469 50.5843 -360.564 -188.387 7.66333
lowerback 20.1571 2.6428 0.996781
upperback 13.8058 6.89284 3.71764
thorax 3.42265 4.68332 2.32041
lowerneck -16.8603 -6.9949 -3.00946
upperneck 13.1856 -8.75913 -0.766949
head 6.87618 -4.45143 -0.711793
rclavicle -1.03368e-014 -2.66371e-014
rhumerus 109.236 -15.5691 -67.2929
rradius 29.6386
rwrist 16.4052
rhand -25.9674 -22.4392
rfingers 7.12502
rthumb 0.577252 -52.4181
lclavicle -1.03368e-014 -2.66371e-014
lhumerus 114.844 6.78742 69.2324
lradius 26.7832
lwrist -26.4325
lhand -9.23195 -0.268319
lfingers 7.12502
lthumb 16.7232 29.0314
rfemur -24.4913 1.50955 29.3146
rtibia 25.2957
rfoot -23.1308 -2.64105
rtoes 7.66538
lfemur -25.0427 7.19568 -14.824
ltibia 32.4741
lfoot -25.6262 -0.130634
ltoes 9.67527
1486
root 12.5122 26.5436 50.6071 -360.503 -188.443 7.63774
lowerback 19.9798 2.67978 1.02866
upperback 13.8069 6.9298 3.72222
thorax 3.51353 4.69833 2.31895
lowerneck -17.0478 -7.12612 -3.01418
upperneck 12.4132 -8.9239 -0.627293
head 6.66425 -4.51344 -0.671325
rclavicle 3.81667e-014 -7.95139e-016
rhumerus 109.429 -15.9464 -66.6505
rradius 28.8054
rwrist 16.918
rhand -26.0626 -22.9141
rfingers 7.12502
rthumb 0.485327 -52.8933
lclavicle 3.81667e-014 -7.95139e-016
lhumerus 115.126 7.20885 68.7089
lradius 25.8881
lwrist -27.1634
lhand -9.6024 -0.0908674
lfingers 7.12502
lthumb 16.3665 29.2386
rfemur -24.6289 1.42528 29.3003
rtibia 25.2434
rfoot -22.964 -2.2407
rtoes 8.30867
lfemur -25.2191 7.05189 -14.8671
ltibia 32.4852
lfoot -25.5518 0.246145
ltoes 9.24664
